<svg width="240" height="65" viewBox="0 0 240 65" fill="none" xmlns="http://www.w3.org/2000/svg">
<path fill-rule="evenodd" clip-rule="evenodd" d="M65.7535 5.50197C66.2936 4.04241 66.5636 3.31263 66.9631 3.11362C67.2795 2.95594 67.6517 2.95594 67.9681 3.11362C68.3676 3.31263 68.6376 4.04241 69.1777 5.50197L69.7634 7.08465C69.8727 7.38021 69.9274 7.52799 70.0156 7.65112C70.0874 7.75137 70.1752 7.83915 70.2755 7.91096C70.3986 7.99917 70.5464 8.05385 70.8419 8.16322L72.4246 8.74886C73.8842 9.28895 74.6139 9.55899 74.813 9.95844C74.9706 10.2749 74.9706 10.647 74.813 10.9635C74.6139 11.363 73.8842 11.633 72.4246 12.1731L70.8419 12.7587C70.5464 12.8681 70.3986 12.9228 70.2755 13.011C70.1752 13.0828 70.0874 13.1706 70.0156 13.2708C69.9274 13.3939 69.8727 13.5417 69.7634 13.8373L69.1777 15.42C68.6376 16.8795 68.3676 17.6093 67.9681 17.8083C67.6517 17.966 67.2795 17.966 66.9631 17.8083C66.5636 17.6093 66.2936 16.8795 65.7535 15.42L65.1679 13.8373C65.0585 13.5417 65.0038 13.3939 64.9156 13.2708C64.8438 13.1706 64.756 13.0828 64.6558 13.011C64.5326 12.9228 64.3848 12.8681 64.0893 12.7587L62.5066 12.1731C61.0471 11.633 60.3173 11.363 60.1183 10.9635C59.9606 10.647 59.9606 10.2749 60.1183 9.95844C60.3173 9.55899 61.0471 9.28895 62.5066 8.74886L64.0893 8.16322C64.3848 8.05385 64.5326 7.99917 64.6558 7.91096C64.756 7.83915 64.8438 7.75137 64.9156 7.65112C65.0038 7.52799 65.0585 7.38021 65.1679 7.08465L65.7535 5.50197ZM11.5618 14.7783C11.5618 13.1617 12.8723 11.8513 14.4888 11.8513H55.5V8.92428H14.4888C12.9707 8.92428 11.5875 9.50217 10.5473 10.45L1.86848 16.5404C0.697245 17.3623 0 18.7034 0 20.1343V56.0489C0 58.4737 1.96569 60.4394 4.39049 60.4394L54.9626 60.3303C56.2606 60.3303 57.492 59.756 58.3262 58.7616C58.3262 58.7616 64.424 53.73 66.6039 51.8817C68.3366 50.8652 69.5 48.9829 69.5 46.8288V23.9379H66.573V46.8288C66.573 48.4454 65.2626 49.7558 63.646 49.7558H14.4888C12.8723 49.7558 11.5618 48.4454 11.5618 46.8288V14.7783ZM30.2703 28.8655C31.2456 25.1454 34.1646 22.4508 38.214 21.5324C40.4415 21.0272 43.7114 21.6504 45.718 22.9628C48.6166 24.8584 50.3133 27.9475 50.3133 31.3287C50.3133 34.1956 49.4231 36.3053 47.3723 38.2986C45.8057 39.8213 44.5399 40.5462 42.5993 41.0323C40.213 41.63 37.6198 41.3207 35.3675 40.1695C34.0992 39.5212 31.8087 37.3266 31.1583 36.1365C30.0664 34.1386 29.6919 31.0724 30.2703 28.8655ZM42.2039 23.5517C46.4937 24.7858 49.0976 28.8135 48.2249 32.8649C47.4016 36.6865 44.0737 39.3701 40.1578 39.3701C37.1204 39.3701 34.3401 37.732 32.9165 35.1037C32.2262 33.8292 31.8038 31.8389 31.9575 30.5854C32.1 29.4234 32.711 27.7737 33.3147 26.9205C33.9777 25.9837 35.5551 24.5981 36.4539 24.163C38.2281 23.3043 40.503 23.0624 42.2039 23.5517ZM34.5971 28.9047C35.4493 27.1246 36.8268 26.0014 38.7303 25.5347C39.861 25.2573 40.8268 25.3104 42.1822 25.7241C43.6609 26.1754 45.1213 27.5592 45.7669 28.9673C46.3627 30.2667 46.3434 32.4603 45.7246 33.7527C44.8318 35.6177 43.4637 36.686 41.3776 37.1474C40.255 37.3956 40.0667 37.3956 38.9442 37.1474C36.858 36.686 35.4899 35.6177 34.5971 33.7527C34.2187 32.9623 34.151 32.5946 34.151 31.3287C34.151 30.0628 34.2187 29.695 34.5971 28.9047ZM44.6609 28.8287C44.6609 29.6571 43.9893 30.3287 43.1609 30.3287C42.3324 30.3287 41.6609 29.6571 41.6609 28.8287C41.6609 28.0003 42.3324 27.3287 43.1609 27.3287C43.9893 27.3287 44.6609 28.0003 44.6609 28.8287Z" fill="white"/>
<path d="M228.2 13.9468L227.736 17.9134H236.803V53.5104H225.006V53.0467H218.515V53.5104H207.027V17.9134H215.527L215.888 13.7407L228.2 13.9468ZM203.267 27.7528V31.1013C203.919 31.0326 204.898 30.9639 206.203 30.8952C206.1 32.9215 206.048 35.9609 206.048 40.0134L203.267 40.271V45.0104C203.267 47.8609 203.009 49.8356 202.494 50.9346C201.979 51.9993 201 52.6861 199.557 52.9952C198.115 53.27 195.35 53.476 191.264 53.6134L190.079 53.6649C189.907 51.5356 189.684 49.7841 189.409 48.4104C189.134 47.0023 188.585 45.5255 187.761 43.9801C189.169 43.9801 190.165 43.9286 190.748 43.8255C191.332 43.6882 191.676 43.4993 191.779 43.2589C191.916 42.9841 191.985 42.5548 191.985 41.971V41.1983L188.585 41.4558C188.447 37.575 188.138 34.3639 187.657 31.8225L191.985 31.668V27.7528H188.585V18.6347H191.985V14.4104H203.267V18.6347H206.048V27.7528H203.267ZM218.515 27.2377V31.4619H225.006V27.2377H218.515ZM218.515 43.7225H225.006V39.4983H218.515V43.7225Z" fill="white"/>
<path d="M176.375 54.2316C174.555 52.377 173.147 49.973 172.151 47.0195C171.155 44.0659 170.503 40.0134 170.194 34.8619L169.524 35.068V53.7679H159.891V37.6437L159.272 37.7983L158.397 34.3983L158.242 43.877C158.173 46.4185 157.882 48.376 157.366 49.7498C156.851 51.0892 155.924 52.1023 154.585 52.7892C153.245 53.476 151.219 53.974 148.506 54.2831C148.025 51.7417 147.098 49.0457 145.724 46.1952C145.278 48.4962 144.522 51.2952 143.457 54.5922C141.981 53.6649 140.349 52.8063 138.563 52.0164C136.778 51.2265 135.129 50.6255 133.618 50.2134C134.957 46.7104 135.885 43.1387 136.4 39.4983C136.915 35.8235 137.207 31.273 137.275 25.8468H134.854V16.1104H141.191V14.2044H152.009V16.1104H158.809V21.0559C159.187 19.8538 159.478 18.6175 159.685 17.3468C159.925 16.0417 160.131 14.8569 160.303 13.7922L170.4 14.3074L170.194 16.368H184.154V25.074H179.93L182.248 31.2043L178.9 32.1831L179.106 33.8316C179.587 33.6942 180.548 33.368 181.991 32.8528L184.257 40.4771L180.96 41.5589C182.025 44.6154 183.399 46.8306 185.081 48.2043C183.502 49.0972 182.111 49.973 180.909 50.8316C179.707 51.6902 178.196 52.8235 176.375 54.2316ZM168.597 25.074L168.082 26.774C169.799 26.2589 171.55 25.6922 173.336 25.074H168.597ZM158.397 29.0922C161.522 28.4397 164.149 27.8387 166.278 27.2892C163.565 26.8771 160.406 26.6023 156.8 26.4649C156.937 26.1902 157.023 25.9841 157.057 25.8468H147.269V27.1346H158.397V29.0922ZM148.094 41.5589C148.162 40.8033 148.197 39.4639 148.197 37.5407V35.5316H147.063C146.892 38.6225 146.565 41.576 146.085 44.3922C146.668 44.2205 147.132 43.9286 147.475 43.5164C147.819 43.1043 148.025 42.4518 148.094 41.5589Z" fill="white"/>
<path d="M127.127 44.2377C128.913 44.0316 130.287 43.8427 131.248 43.671C130.733 44.976 130.373 46.3498 130.167 47.7922C129.995 49.2003 129.858 50.969 129.754 53.0983C125.736 53.3387 122.336 53.4589 119.554 53.4589C115.88 53.4589 112.943 53.2013 110.745 52.6861C108.582 52.171 106.659 51.3467 104.976 50.2134C103.739 51.2781 101.902 52.5316 99.4636 53.974L98.8454 50.6255L98.1242 46.968C97.5404 48.4104 96.699 49.5094 95.6 50.2649C94.501 50.9861 93.1959 51.3124 91.6848 51.2437C91.3414 47.8437 90.7404 45.1478 89.8818 43.1558V53.4589H82V14.9771H97.0939L98.0727 18.4801L99.6697 13.3286C102.417 14.0842 105.13 15.166 107.809 16.5741V15.6468H111.415C111.449 15.3377 111.449 15.063 111.415 14.8226C111.415 14.5478 111.415 14.3246 111.415 14.1529H118.885V15.6468H129.6V21.571H117.958C117.854 21.8458 117.786 22.0175 117.751 22.0862H128.261V25.3316H125.582V25.8983H129.651V29.3498H113.888V27.7013C113.064 28.5943 112.239 29.3326 111.415 29.9165H129.085V41.4043C129.085 42.1255 128.947 42.7094 128.673 43.1558C128.398 43.6023 127.883 43.9629 127.127 44.2377ZM107.706 24.3528C105.371 23.3569 103.636 22.6357 102.503 22.1892C101.37 21.7427 100.133 21.3478 98.7939 21.0044L99.103 22.1892C101.507 22.9791 104.014 23.9064 106.624 24.971C107.002 24.7993 107.363 24.5932 107.706 24.3528ZM107.964 24.1983C108.822 23.5114 109.543 22.6357 110.127 21.571H108.479L107.964 24.1983ZM89.8818 23.6831V29.8134C90.8091 27.4094 91.2899 25.366 91.3242 23.6831H89.8818ZM118.061 25.8983V25.3316H116L115.536 25.8983H118.061ZM96.1666 32.2347C96.8879 33.5397 97.4545 34.7589 97.8666 35.8922V31.874H103.636C101.679 31.2559 99.5495 30.672 97.2485 30.1225L97.8151 27.1347C97.2313 28.9892 96.6818 30.6892 96.1666 32.2347ZM108.942 29.9165H109.87C109.492 28.9549 109.063 28.1478 108.582 27.4953L107.758 32.6468V43.568L108.942 43.8771V29.9165ZM121.615 33.8831V33.265H116.464V33.8831H121.615ZM89.8818 41.6619C90.2596 41.4902 90.5687 41.1983 90.8091 40.7862C91.0838 40.374 91.2212 39.8589 91.2212 39.2407C91.2212 38.073 90.7747 36.7336 89.8818 35.2225V41.6619ZM116.464 37.0256H121.615V36.4589H116.464V37.0256ZM99.8757 39.1892H98.7939C98.9313 39.9104 99 40.7346 99 41.6619V41.971C99.103 41.9023 99.2232 41.8336 99.3606 41.7649C99.5323 41.6619 99.704 41.5417 99.8757 41.4043V39.1892ZM119.658 44.7013C119.451 43.774 119.211 42.9841 118.936 42.3316C118.696 41.6447 118.267 40.975 117.648 40.3225H119.554C120.55 40.3225 121.151 40.3053 121.358 40.271C121.598 40.2367 121.701 40.1851 121.667 40.1165C121.632 40.0478 121.615 39.9963 121.615 39.9619V39.7043H116.464V44.6498C117.013 44.6841 117.906 44.7013 119.142 44.7013H119.658Z" fill="white"/>
<path d="M60.5001 41.886C60.5001 39.4162 60.5421 38.9363 60.7803 38.6785C61.1292 38.301 61.8131 38.2872 62.2219 38.6497C62.5052 38.9007 62.5316 39.2563 62.5316 42.8231C62.5316 46.2186 62.4953 46.7614 62.2514 47.0254C61.9914 47.3067 61.5923 47.3286 56.7205 47.3286C52.0721 47.3286 51.4342 47.2971 51.1601 47.0542C50.7538 46.6941 50.7665 46.0844 51.1891 45.6706C51.5094 45.3569 51.7533 45.339 55.7042 45.339C59.3531 45.339 59.9201 45.3043 60.1904 45.0646C60.4679 44.8187 60.5001 44.4889 60.5001 41.886Z" fill="white"/>
<path d="M15.2795 23.316C15.2795 30.2559 15.298 30.7133 15.5892 30.9713C15.998 31.3338 16.682 31.32 17.0309 30.9425C17.2812 30.6715 17.311 29.9694 17.311 24.3473C17.311 18.9209 17.3473 18.0045 17.5746 17.6868L17.838 17.3183H27.0287C35.7172 17.3183 36.2344 17.3017 36.4994 17.015C36.8694 16.6146 36.8554 15.9447 36.4699 15.603C36.189 15.3541 35.2168 15.3286 26.0001 15.3286C16.372 15.3286 15.8252 15.3445 15.5597 15.6319L15.2795 23.316Z" fill="white"/>
<path d="M60.5001 41.886C60.5001 39.4162 60.5421 38.9363 60.7803 38.6785C61.1292 38.301 61.8131 38.2872 62.2219 38.6497C62.5052 38.9007 62.5316 39.2563 62.5316 42.8231C62.5316 46.2186 62.4953 46.7614 62.2514 47.0254C61.9914 47.3067 61.5923 47.3286 56.7205 47.3286C52.0721 47.3286 51.4342 47.2971 51.1601 47.0542C50.7538 46.6941 50.7665 46.0844 51.1891 45.6706C51.5094 45.3569 51.7533 45.339 55.7042 45.339C59.3531 45.339 59.9201 45.3043 60.1904 45.0646C60.4679 44.8187 60.5001 44.4889 60.5001 41.886Z" stroke="white"/>
<path d="M15.2795 23.316C15.2795 30.2559 15.298 30.7133 15.5892 30.9713C15.998 31.3338 16.682 31.32 17.0309 30.9425C17.2812 30.6715 17.311 29.9694 17.311 24.3473C17.311 18.9209 17.3473 18.0045 17.5746 17.6868L17.838 17.3183H27.0287C35.7172 17.3183 36.2344 17.3017 36.4994 17.015C36.8694 16.6146 36.8554 15.9447 36.4699 15.603C36.189 15.3541 35.2168 15.3286 26.0001 15.3286C16.372 15.3286 15.8252 15.3445 15.5597 15.6319L15.2795 23.316Z" stroke="white"/>
</svg>
