<svg width="237" height="59" viewBox="0 0 237 59" fill="none" xmlns="http://www.w3.org/2000/svg">
  <path fill-rule="evenodd" clip-rule="evenodd" d="M65.7535 3.17336C66.2936 1.7138 66.5636 0.98402 66.9631 0.785002C67.2795 0.62733 67.6517 0.62733 67.9681 0.785002C68.3676 0.98402 68.6376 1.7138 69.1777 3.17336L69.7634 4.75603C69.8727 5.0516 69.9274 5.19938 70.0156 5.32251C70.0874 5.42275 70.1752 5.51053 70.2755 5.58235C70.3986 5.67055 70.5464 5.72524 70.8419 5.83461L72.4246 6.42025C73.8842 6.96033 74.6139 7.23037 74.813 7.62983C74.9706 7.94629 74.9706 8.31842 74.813 8.63489C74.6139 9.03434 73.8842 9.30438 72.4246 9.84447L70.8419 10.4301C70.5464 10.5395 70.3986 10.5942 70.2755 10.6824C70.1752 10.7542 70.0874 10.842 70.0156 10.9422C69.9274 11.0653 69.8727 11.2131 69.7634 11.5087L69.1777 13.0914C68.6376 14.5509 68.3676 15.2807 67.9681 15.4797C67.6517 15.6374 67.2795 15.6374 66.9631 15.4797C66.5636 15.2807 66.2936 14.5509 65.7535 13.0914L65.1679 11.5087C65.0585 11.2131 65.0038 11.0653 64.9156 10.9422C64.8438 10.842 64.756 10.7542 64.6558 10.6824C64.5326 10.5942 64.3848 10.5395 64.0893 10.4301L62.5066 9.84447C61.0471 9.30438 60.3173 9.03434 60.1183 8.63489C59.9606 8.31842 59.9606 7.94629 60.1183 7.62983C60.3173 7.23037 61.0471 6.96033 62.5066 6.42025L64.0893 5.83461C64.3848 5.72524 64.5326 5.67055 64.6558 5.58235C64.756 5.51053 64.8438 5.42275 64.9156 5.32251C65.0038 5.19938 65.0585 5.0516 65.1679 4.75603L65.7535 3.17336ZM11.5618 12.4497C11.5618 10.8331 12.8723 9.52266 14.4888 9.52266H55.5V6.59566H14.4888C12.9707 6.59566 11.5875 7.17356 10.5473 8.12136L1.86848 14.2118C0.697245 15.0337 0 16.3748 0 17.8056V53.7202C0 56.1451 1.96569 58.1107 4.39049 58.1107L54.9626 58.0017C56.2606 58.0017 57.492 57.4274 58.3262 56.433C58.3262 56.433 64.424 51.4014 66.6039 49.5531C68.3366 48.5365 69.5 46.6543 69.5 44.5002V21.6093H66.573V44.5002C66.573 46.1168 65.2626 47.4272 63.646 47.4272H14.4888C12.8723 47.4272 11.5618 46.1168 11.5618 44.5002V12.4497ZM30.2703 26.5369C31.2456 22.8168 34.1646 20.1222 38.214 19.2038C40.4415 18.6986 43.7114 19.3218 45.718 20.6342C48.6166 22.5298 50.3133 25.6189 50.3133 29.0001C50.3133 31.867 49.4231 33.9767 47.3723 35.9699C45.8057 37.4927 44.5399 38.2176 42.5993 38.7037C40.213 39.3014 37.6198 38.992 35.3675 37.8409C34.0992 37.1926 31.8087 34.998 31.1583 33.8079C30.0664 31.8099 29.6919 28.7437 30.2703 26.5369ZM42.2039 21.2231C46.4937 22.4572 49.0976 26.4848 48.2249 30.5362C47.4016 34.3578 44.0737 37.0415 40.1578 37.0415C37.1204 37.0415 34.3401 35.4034 32.9165 32.7751C32.2262 31.5006 31.8038 29.5103 31.9575 28.2568C32.1 27.0948 32.711 25.4451 33.3147 24.5919C33.9777 23.6551 35.5551 22.2695 36.4539 21.8344C38.2281 20.9757 40.503 20.7338 42.2039 21.2231ZM34.5971 26.576C35.4493 24.796 36.8268 23.6728 38.7303 23.2061C39.861 22.9287 40.8268 22.9818 42.1822 23.3954C43.6609 23.8468 45.1213 25.2305 45.7669 26.6387C46.3627 27.9381 46.3434 30.1317 45.7246 31.4241C44.8318 33.2891 43.4637 34.3573 41.3776 34.8188C40.255 35.067 40.0667 35.067 38.9442 34.8188C36.858 34.3573 35.4899 33.2891 34.5971 31.4241C34.2187 30.6337 34.151 30.266 34.151 29.0001C34.151 27.7342 34.2187 27.3664 34.5971 26.576ZM44.6609 26.5001C44.6609 27.3285 43.9893 28.0001 43.1609 28.0001C42.3324 28.0001 41.6609 27.3285 41.6609 26.5001C41.6609 25.6717 42.3324 25.0001 43.1609 25.0001C43.9893 25.0001 44.6609 25.6717 44.6609 26.5001Z" fill="#1F1300"/>
  <path d="M228.2 11.6182L227.736 15.5848H236.803V51.1818H225.006V50.7181H218.515V51.1818H207.027V15.5848H215.527L215.888 11.4121L228.2 11.6182ZM203.267 25.4242V28.7727C203.919 28.704 204.898 28.6353 206.203 28.5666C206.1 30.5929 206.048 33.6323 206.048 37.6848L203.267 37.9424V42.6818C203.267 45.5323 203.009 47.507 202.494 48.606C201.979 49.6706 201 50.3575 199.557 50.6666C198.115 50.9414 195.35 51.1474 191.264 51.2848L190.079 51.3363C189.907 49.207 189.684 47.4555 189.409 46.0818C189.134 44.6737 188.585 43.1969 187.761 41.6515C189.169 41.6515 190.165 41.6 190.748 41.4969C191.332 41.3595 191.676 41.1707 191.779 40.9303C191.916 40.6555 191.985 40.2262 191.985 39.6424V38.8697L188.585 39.1272C188.447 35.2464 188.138 32.0353 187.657 29.4939L191.985 29.3394V25.4242H188.585V16.306H191.985V12.0818H203.267V16.306H206.048V25.4242H203.267ZM218.515 24.9091V29.1333H225.006V24.9091H218.515ZM218.515 41.3939H225.006V37.1697H218.515V41.3939Z" fill="black"/>
  <path d="M176.375 51.903C174.555 50.0484 173.147 47.6444 172.151 44.6909C171.155 41.7373 170.503 37.6848 170.194 32.5333L169.524 32.7394V51.4393H159.891V35.3151L159.272 35.4697L158.397 32.0697L158.242 41.5484C158.173 44.0898 157.882 46.0474 157.366 47.4212C156.851 48.7605 155.924 49.7737 154.585 50.4605C153.245 51.1474 151.219 51.6454 148.506 51.9545C148.025 49.4131 147.098 46.7171 145.724 43.8666C145.278 46.1676 144.522 48.9666 143.457 52.2636C141.981 51.3363 140.349 50.4777 138.563 49.6878C136.778 48.8979 135.129 48.2969 133.618 47.8848C134.957 44.3818 135.885 40.8101 136.4 37.1697C136.915 33.4949 137.207 28.9444 137.275 23.5182H134.854V13.7818H141.191V11.8757H152.009V13.7818H158.809V18.7273C159.187 17.5252 159.478 16.2889 159.685 15.0182C159.925 13.7131 160.131 12.5283 160.303 11.4636L170.4 11.9788L170.194 14.0394H184.154V22.7454H179.93L182.248 28.8757L178.9 29.8545L179.106 31.503C179.587 31.3656 180.548 31.0394 181.991 30.5242L184.257 38.1484L180.96 39.2303C182.025 42.2868 183.399 44.502 185.081 45.8757C183.502 46.7686 182.111 47.6444 180.909 48.503C179.707 49.3616 178.196 50.4949 176.375 51.903ZM168.597 22.7454L168.082 24.4454C169.799 23.9303 171.55 23.3636 173.336 22.7454H168.597ZM158.397 26.7636C161.522 26.1111 164.149 25.5101 166.278 24.9606C163.565 24.5485 160.406 24.2737 156.8 24.1363C156.937 23.8616 157.023 23.6555 157.057 23.5182H147.269V24.806H158.397V26.7636ZM148.094 39.2303C148.162 38.4747 148.197 37.1353 148.197 35.2121V33.203H147.063C146.892 36.2939 146.565 39.2474 146.085 42.0636C146.668 41.8919 147.132 41.5999 147.475 41.1878C147.819 40.7757 148.025 40.1232 148.094 39.2303Z" fill="black"/>
  <path d="M127.127 41.9091C128.913 41.703 130.287 41.5141 131.248 41.3424C130.733 42.6474 130.373 44.0212 130.167 45.4636C129.995 46.8717 129.858 48.6404 129.754 50.7696C125.736 51.01 122.336 51.1303 119.554 51.1303C115.88 51.1303 112.943 50.8727 110.745 50.3575C108.582 49.8424 106.659 49.0181 104.976 47.8848C103.739 48.9494 101.902 50.203 99.4636 51.6454L98.8454 48.2969L98.1242 44.6394C97.5404 46.0818 96.699 47.1808 95.6 47.9363C94.501 48.6575 93.1959 48.9838 91.6848 48.9151C91.3414 45.5151 90.7404 42.8192 89.8818 40.8272V51.1303H82V12.6485H97.0939L98.0727 16.1515L99.6697 11C102.417 11.7556 105.13 12.8374 107.809 14.2455V13.3182H111.415C111.449 13.0091 111.449 12.7343 111.415 12.4939C111.415 12.2192 111.415 11.996 111.415 11.8242H118.885V13.3182H129.6V19.2424H117.958C117.854 19.5172 117.786 19.6889 117.751 19.7576H128.261V23.003H125.582V23.5697H129.651V27.0212H113.888V25.3727C113.064 26.2656 112.239 27.004 111.415 27.5879H129.085V39.0757C129.085 39.7969 128.947 40.3808 128.673 40.8272C128.398 41.2737 127.883 41.6343 127.127 41.9091ZM107.706 22.0242C105.371 21.0283 103.636 20.3071 102.503 19.8606C101.37 19.4141 100.133 19.0192 98.7939 18.6757L99.103 19.8606C101.507 20.6505 104.014 21.5778 106.624 22.6424C107.002 22.4707 107.363 22.2646 107.706 22.0242ZM107.964 21.8697C108.822 21.1828 109.543 20.3071 110.127 19.2424H108.479L107.964 21.8697ZM89.8818 21.3545V27.4848C90.8091 25.0808 91.2899 23.0374 91.3242 21.3545H89.8818ZM118.061 23.5697V23.003H116L115.536 23.5697H118.061ZM96.1666 29.906C96.8879 31.2111 97.4545 32.4303 97.8666 33.5636V29.5454H103.636C101.679 28.9273 99.5495 28.3434 97.2485 27.7939L97.8151 24.806C97.2313 26.6606 96.6818 28.3606 96.1666 29.906ZM108.942 27.5879H109.87C109.492 26.6262 109.063 25.8192 108.582 25.1666L107.758 30.3182V41.2394L108.942 41.5484V27.5879ZM121.615 31.5545V30.9363H116.464V31.5545H121.615ZM89.8818 39.3333C90.2596 39.1616 90.5687 38.8697 90.8091 38.4575C91.0838 38.0454 91.2212 37.5303 91.2212 36.9121C91.2212 35.7444 90.7747 34.405 89.8818 32.8939V39.3333ZM116.464 34.6969H121.615V34.1303H116.464V34.6969ZM99.8757 36.8606H98.7939C98.9313 37.5818 99 38.406 99 39.3333V39.6424C99.103 39.5737 99.2232 39.505 99.3606 39.4363C99.5323 39.3333 99.704 39.2131 99.8757 39.0757V36.8606ZM119.658 42.3727C119.451 41.4454 119.211 40.6555 118.936 40.003C118.696 39.3161 118.267 38.6464 117.648 37.9939H119.554C120.55 37.9939 121.151 37.9767 121.358 37.9424C121.598 37.908 121.701 37.8565 121.667 37.7878C121.632 37.7192 121.615 37.6676 121.615 37.6333V37.3757H116.464V42.3212C117.013 42.3555 117.906 42.3727 119.142 42.3727H119.658Z" fill="black"/>
  <path d="M60.5001 39.5574C60.5001 37.0875 60.5421 36.6077 60.7803 36.3499C61.1292 35.9724 61.8131 35.9586 62.2219 36.321C62.5052 36.5721 62.5316 36.9277 62.5316 40.4945C62.5316 43.8899 62.4953 44.4328 62.2514 44.6967C61.9914 44.9781 61.5923 45 56.7205 45C52.0721 45 51.4342 44.9685 51.1601 44.7256C50.7538 44.3655 50.7665 43.7558 51.1891 43.342C51.5094 43.0283 51.7533 43.0104 55.7042 43.0104C59.3531 43.0104 59.9201 42.9757 60.1904 42.736C60.4679 42.4901 60.5001 42.1603 60.5001 39.5574Z" fill="#1F1300"/>
  <path d="M15.2795 20.9874C15.2795 27.9273 15.298 28.3847 15.5892 28.6427C15.998 29.0051 16.682 28.9914 17.0309 28.6138C17.2812 28.3429 17.311 27.6407 17.311 22.0187C17.311 16.5923 17.3473 15.6759 17.5746 15.3582L17.838 14.9896H27.0287C35.7172 14.9896 36.2344 14.9731 36.4994 14.6864C36.8694 14.286 36.8554 13.6161 36.4699 13.2744C36.189 13.0255 35.2168 13 26.0001 13C16.372 13 15.8252 13.0159 15.5597 13.3033L15.2795 20.9874Z" fill="#1F1300"/>
  <path d="M60.5001 39.5574C60.5001 37.0875 60.5421 36.6077 60.7803 36.3499C61.1292 35.9724 61.8131 35.9586 62.2219 36.321C62.5052 36.5721 62.5316 36.9277 62.5316 40.4945C62.5316 43.8899 62.4953 44.4328 62.2514 44.6967C61.9914 44.9781 61.5923 45 56.7205 45C52.0721 45 51.4342 44.9685 51.1601 44.7256C50.7538 44.3655 50.7665 43.7558 51.1891 43.342C51.5094 43.0283 51.7533 43.0104 55.7042 43.0104C59.3531 43.0104 59.9201 42.9757 60.1904 42.736C60.4679 42.4901 60.5001 42.1603 60.5001 39.5574Z" stroke="#1F1300"/>
  <path d="M15.2795 20.9874C15.2795 27.9273 15.298 28.3847 15.5892 28.6427C15.998 29.0051 16.682 28.9914 17.0309 28.6138C17.2812 28.3429 17.311 27.6407 17.311 22.0187C17.311 16.5923 17.3473 15.6759 17.5746 15.3582L17.838 14.9896H27.0287C35.7172 14.9896 36.2344 14.9731 36.4994 14.6864C36.8694 14.286 36.8554 13.6161 36.4699 13.2744C36.189 13.0255 35.2168 13 26.0001 13C16.372 13 15.8252 13.0159 15.5597 13.3033L15.2795 20.9874Z" stroke="#1F1300"/>
</svg>