<svg width="48" height="48" viewBox="0 0 48 48" fill="none" xmlns="http://www.w3.org/2000/svg">
<path d="M38 14V10H34V6H38V2H42V6H46V10H42V14H38ZM22 35C24.5 35 26.625 34.125 28.375 32.375C30.125 30.625 31 28.5 31 26C31 23.5 30.125 21.375 28.375 19.625C26.625 17.875 24.5 17 22 17C19.5 17 17.375 17.875 15.625 19.625C13.875 21.375 13 23.5 13 26C13 28.5 13.875 30.625 15.625 32.375C17.375 34.125 19.5 35 22 35ZM22 31C20.6 31 19.4167 30.5167 18.45 29.55C17.4833 28.5833 17 27.4 17 26C17 24.6 17.4833 23.4167 18.45 22.45C19.4167 21.4833 20.6 21 22 21C23.4 21 24.5833 21.4833 25.55 22.45C26.5167 23.4167 27 24.6 27 26C27 27.4 26.5167 28.5833 25.55 29.55C24.5833 30.5167 23.4 31 22 31ZM6 42C4.9 42 3.95833 41.6083 3.175 40.825C2.39167 40.0417 2 39.1 2 38V14C2 12.9 2.39167 11.9583 3.175 11.175C3.95833 10.3917 4.9 10 6 10H12.3L16 6H30V14H34V18H42V38C42 39.1 41.6083 40.0417 40.825 40.825C40.0417 41.6083 39.1 42 38 42H6Z" fill="#1F1300"/>
</svg>
