<svg width="48" height="48" viewBox="0 0 48 48" fill="none" xmlns="http://www.w3.org/2000/svg">
<path d="M13.5 44.0001C12 44.0001 10.7083 43.4918 9.625 42.4751C8.54167 41.4584 8 40.2001 8 38.7001V10.8001C8 9.53343 8.39167 8.4001 9.175 7.4001C9.95833 6.4001 10.9833 5.76676 12.25 5.5001L32 1.6001V33.6001L13.05 37.4001C12.75 37.4668 12.5 37.6251 12.3 37.8751C12.1 38.1251 12 38.4001 12 38.7001C12 39.0668 12.15 39.3751 12.45 39.6251C12.75 39.8751 13.1 40.0001 13.5 40.0001H36V8.0001H40V44.0001H13.5ZM14 33.1501L18 32.3501V8.4501L14 9.2501V33.1501Z" fill="#1F1300"/>
</svg>
