<svg width="40" height="40" viewBox="0 0 40 40" fill="none" xmlns="http://www.w3.org/2000/svg">
<path d="M20 40C17.2333 40 14.6333 39.475 12.2 38.425C9.76667 37.375 7.65 35.95 5.85 34.15C4.05 32.35 2.625 30.2333 1.575 27.8C0.525 25.3667 0 22.7667 0 20C0 17.2333 0.525 14.6333 1.575 12.2C2.625 9.76667 4.05 7.65 5.85 5.85C7.65 4.05 9.76667 2.625 12.2 1.575C14.6333 0.525 17.2333 0 20 0C22.7667 0 25.3667 0.525 27.8 1.575C30.2333 2.625 32.35 4.05 34.15 5.85C35.95 7.65 37.375 9.76667 38.425 12.2C39.475 14.6333 40 17.2333 40 20C40 22.7667 39.475 25.3667 38.425 27.8C37.375 30.2333 35.95 32.35 34.15 34.15C32.35 35.95 30.2333 37.375 27.8 38.425C25.3667 39.475 22.7667 40 20 40ZM18 35.9V32C16.9 32 15.9583 31.6083 15.175 30.825C14.3917 30.0417 14 29.1 14 28V26L4.4 16.4C4.3 17 4.20833 17.6 4.125 18.2C4.04167 18.8 4 19.4 4 20C4 24.0333 5.325 27.5667 7.975 30.6C10.625 33.6333 13.9667 35.4 18 35.9ZM31.8 30.8C32.4667 30.0667 33.0667 29.275 33.6 28.425C34.1333 27.575 34.575 26.6917 34.925 25.775C35.275 24.8583 35.5417 23.9167 35.725 22.95C35.9083 21.9833 36 21 36 20C36 16.7333 35.0917 13.75 33.275 11.05C31.4583 8.35 29.0333 6.4 26 5.2V6C26 7.1 25.6083 8.04167 24.825 8.825C24.0417 9.60833 23.1 10 22 10H18V14C18 14.5667 17.8083 15.0417 17.425 15.425C17.0417 15.8083 16.5667 16 16 16H12V20H24C24.5667 20 25.0417 20.1917 25.425 20.575C25.8083 20.9583 26 21.4333 26 22V28H28C28.8667 28 29.65 28.2583 30.35 28.775C31.05 29.2917 31.5333 29.9667 31.8 30.8Z" fill="#1F1300"/>
</svg>
