<svg width="48" height="48" viewBox="0 0 48 48" fill="none" xmlns="http://www.w3.org/2000/svg">
<g clip-path="url(#clip0_695_7845)">
<path d="M24 33C22.6 33 21.4167 32.5167 20.45 31.55C19.4833 30.5833 19 29.4 19 28C19 26.6 19.4833 25.4167 20.45 24.45C21.4167 23.4833 22.6 23 24 23H24.1C24.8333 24.0333 25.6083 25.0333 26.425 26C27.2417 26.9667 28.0833 27.9 28.95 28.8C28.7833 30 28.2333 31 27.3 31.8C26.3667 32.6 25.2667 33 24 33ZM8 44C6.9 44 5.95833 43.6083 5.175 42.825C4.39167 42.0417 4 41.1 4 40V16C4 14.9 4.39167 13.9583 5.175 13.175C5.95833 12.3917 6.9 12 8 12H14.3L18 8H20.5C20.3333 8.63333 20.2083 9.28333 20.125 9.95C20.0417 10.6167 20 11.3 20 12C20 13.2667 20.1667 14.5 20.5 15.7C20.8333 16.9 21.2833 18.0833 21.85 19.25C19.85 19.7167 18.2083 20.7583 16.925 22.375C15.6417 23.9917 15 25.8667 15 28C15 30.5 15.875 32.625 17.625 34.375C19.375 36.125 21.5 37 24 37C25.8 37 27.425 36.525 28.875 35.575C30.325 34.625 31.4167 33.3833 32.15 31.85C32.8167 32.4833 33.475 33.0833 34.125 33.65C34.775 34.2167 35.4 34.75 36 35.25C37.4 34.0833 38.7667 32.8917 40.1 31.675C41.4333 30.4583 42.7333 29.2 44 27.9V40C44 41.1 43.6083 42.0417 42.825 42.825C42.0417 43.6083 41.1 44 40 44H8ZM36 30C40.0333 26.5667 43.0417 23.3833 45.025 20.45C47.0083 17.5167 48 14.8 48 12.3C48 8.53333 46.7917 5.54167 44.375 3.325C41.9583 1.10833 39.1667 0 36 0C32.8333 0 30.0417 1.10833 27.625 3.325C25.2083 5.54167 24 8.53333 24 12.3C24 14.8 24.9917 17.5167 26.975 20.45C28.9583 23.3833 31.9667 26.5667 36 30ZM32.3 18L33.7 13.45L30 10.5H34.55L36 6L37.45 10.5H42L38.3 13.45L39.7 18L36 15.2L32.3 18Z" fill="#1F1300"/>
</g>
<defs>
<clipPath id="clip0_695_7845">
<rect width="48" height="48" fill="white"/>
</clipPath>
</defs>
</svg>
