<svg width="48" height="48" viewBox="0 0 48 48" fill="none" xmlns="http://www.w3.org/2000/svg">
<path d="M11 30.8C13.1667 30.5333 15.325 30.3333 17.475 30.2C19.625 30.0667 21.8 30 24 30C26.2 30 28.375 30.0667 30.525 30.2C32.675 30.3333 34.8333 30.5333 37 30.8L28 20L22.3 26.8L18.3 22L11 30.8ZM6 40C5.43333 40 4.95833 39.8083 4.575 39.425C4.19167 39.0417 4 38.5667 4 38V10C4 9.43333 4.19167 8.95833 4.575 8.575C4.95833 8.19167 5.43333 8 6 8C6.26667 8 6.85833 8.15833 7.775 8.475C8.69167 8.79167 9.91667 9.13333 11.45 9.5C12.9833 9.86667 14.7917 10.2083 16.875 10.525C18.9583 10.8417 21.3333 11 24 11C26.6667 11 29.0417 10.8417 31.125 10.525C33.2083 10.2083 35.0167 9.86667 36.55 9.5C38.0833 9.13333 39.3083 8.79167 40.225 8.475C41.1417 8.15833 41.7333 8 42 8C42.5667 8 43.0417 8.19167 43.425 8.575C43.8083 8.95833 44 9.43333 44 10V38C44 38.5667 43.8083 39.0417 43.425 39.425C43.0417 39.8083 42.5667 40 42 40C41.7333 40 41.1417 39.8417 40.225 39.525C39.3083 39.2083 38.0833 38.8667 36.55 38.5C35.0167 38.1333 33.2083 37.7917 31.125 37.475C29.0417 37.1583 26.6667 37 24 37C21.3333 37 18.9583 37.1583 16.875 37.475C14.7917 37.7917 12.9833 38.1333 11.45 38.5C9.91667 38.8667 8.69167 39.2083 7.775 39.525C6.85833 39.8417 6.26667 40 6 40Z" fill="#1F1300"/>
</svg>
