<svg width="48" height="48" viewBox="0 0 48 48" fill="none" xmlns="http://www.w3.org/2000/svg">
<path d="M24 8C28.4667 8 32.25 9.55 35.35 12.65C38.45 15.75 40 19.5333 40 24C40 28.4667 38.45 32.25 35.35 35.35C32.25 38.45 28.4667 40 24 40C19.5333 40 15.75 38.45 12.65 35.35C9.55 32.25 8 28.4667 8 24C8 19.5333 9.55 15.75 12.65 12.65C15.75 9.55 19.5333 8 24 8ZM24 31C25.6 31 27.0333 30.5417 28.3 29.625C29.5667 28.7083 30.4667 27.5 31 26H17C17.5333 27.5 18.4333 28.7083 19.7 29.625C20.9667 30.5417 22.4 31 24 31ZM17 20C17 20.5667 17.1917 21.0417 17.575 21.425C17.9583 21.8083 18.4333 22 19 22C19.5667 22 20.0417 21.8083 20.425 21.425C20.8083 21.0417 21 20.5667 21 20C21 19.4333 20.8083 18.9583 20.425 18.575C20.0417 18.1917 19.5667 18 19 18C18.4333 18 17.9583 18.1917 17.575 18.575C17.1917 18.9583 17 19.4333 17 20ZM27 20C27 20.5667 27.1917 21.0417 27.575 21.425C27.9583 21.8083 28.4333 22 29 22C29.5667 22 30.0417 21.8083 30.425 21.425C30.8083 21.0417 31 20.5667 31 20C31 19.4333 30.8083 18.9583 30.425 18.575C30.0417 18.1917 29.5667 18 29 18C28.4333 18 27.9583 18.1917 27.575 18.575C27.1917 18.9583 27 19.4333 27 20ZM2 12V8C2 6.33333 2.58333 4.91667 3.75 3.75C4.91667 2.58333 6.33333 2 8 2H12V6H8C7.43333 6 6.95833 6.19167 6.575 6.575C6.19167 6.95833 6 7.43333 6 8V12H2ZM8 46C6.33333 46 4.91667 45.4167 3.75 44.25C2.58333 43.0833 2 41.6667 2 40V36H6V40C6 40.5667 6.19167 41.0417 6.575 41.425C6.95833 41.8083 7.43333 42 8 42H12V46H8ZM36 46V42H40C40.5667 42 41.0417 41.8083 41.425 41.425C41.8083 41.0417 42 40.5667 42 40V36H46V40C46 41.6667 45.4167 43.0833 44.25 44.25C43.0833 45.4167 41.6667 46 40 46H36ZM42 12V8C42 7.43333 41.8083 6.95833 41.425 6.575C41.0417 6.19167 40.5667 6 40 6H36V2H40C41.6667 2 43.0833 2.58333 44.25 3.75C45.4167 4.91667 46 6.33333 46 8V12H42Z" fill="#1F1300"/>
</svg>
