<svg width="48" height="48" viewBox="0 0 48 48" fill="none" xmlns="http://www.w3.org/2000/svg">
<path d="M18 23V20H30V23H18ZM20 29V26H28V29H20ZM18 44L15.3 34.9C13.7 33.6333 12.4167 32.05 11.45 30.15C10.4833 28.25 10 26.2 10 24C10 21.8 10.4833 19.75 11.45 17.85C12.4167 15.95 13.7 14.3667 15.3 13.1L18 4H30L32.7 13.1C34.3 14.3667 35.5833 15.95 36.55 17.85C37.5167 19.75 38 21.8 38 24C38 26.2 37.5167 28.25 36.55 30.15C35.5833 32.05 34.3 33.6333 32.7 34.9L30 44H18ZM24 34C26.7667 34 29.125 33.025 31.075 31.075C33.025 29.125 34 26.7667 34 24C34 21.2333 33.025 18.875 31.075 16.925C29.125 14.975 26.7667 14 24 14C21.2333 14 18.875 14.975 16.925 16.925C14.975 18.875 14 21.2333 14 24C14 26.7667 14.975 29.125 16.925 31.075C18.875 33.025 21.2333 34 24 34Z" fill="#1F1300"/>
</svg>
